<?xml version="1.0" standalone="no"?>
<!DOCTYPE svg PUBLIC "-//W3C//DTD SVG 20010904//EN"
 "http://www.w3.org/TR/2001/REC-SVG-20010904/DTD/svg10.dtd">
<svg version="1.0" xmlns="http://www.w3.org/2000/svg"
 width="21.000000pt" height="20.000000pt" viewBox="0 0 21.000000 20.000000"
 preserveAspectRatio="xMidYMid meet">
<metadata>
Created by potrace 1.10, written by Peter Selinger 2001-2011
</metadata>
<g transform="translate(0.000000,20.000000) scale(0.100000,-0.100000)"
fill="#3db1c6" stroke="none">
<path d="M53 184 c-42 -21 -59 -70 -43 -120 26 -77 148 -85 186 -13 18 36 18
63 -2 101 l-16 32 -36 -58 -36 -58 -18 22 c-10 12 -22 20 -27 18 -5 -1 3 -18
18 -37 l28 -34 36 58 c36 58 36 58 46 32 20 -52 -25 -111 -85 -111 -45 0 -87
40 -87 83 0 57 69 105 114 80 11 -6 23 -8 27 -5 21 22 -66 30 -105 10z"/>
</g>
</svg>
